HIERARCHY
ROOT root
{
	OFFSET 0.000000 0.000000 0.000000
	CHANNELS 6 Xposition Yposition Zposition Zrotation Yrotation Xrotation
	JOINT lhip
	{
		OFFSET 0.058581 -0.082280 -0.017664
		CHANNELS 3 Zrotation Yrotation Xrotation
		JOINT lknee
		{
			OFFSET 0.043451 -0.386469 0.008037
			CHANNELS 3 Zrotation Yrotation Xrotation
			JOINT lankle
			{
				OFFSET -0.014790 -0.426874 -0.037428
				CHANNELS 3 Zrotation Yrotation Xrotation
				JOINT ltoe
				{
					OFFSET 0.041054 -0.060286 0.122042
					CHANNELS 3 Zrotation Yrotation Xrotation
					End Site
					{
						OFFSET 0.000000 0.000000 0.000000
					}
				}
			}
		}
	}
	JOINT rhip
	{
		OFFSET -0.060310 -0.090513 -0.013543
		CHANNELS 3 Zrotation Yrotation Xrotation
		JOINT rknee
		{
			OFFSET -0.043257 -0.383688 -0.004843
			CHANNELS 3 Zrotation Yrotation Xrotation
			JOINT rankle
			{
				OFFSET 0.019056 -0.420046 -0.034562
				CHANNELS 3 Zrotation Yrotation Xrotation
				JOINT rtoe
				{
					OFFSET -0.034840 -0.062106 0.130323
					CHANNELS 3 Zrotation Yrotation Xrotation
					End Site
					{
						OFFSET 0.000000 0.000000 0.000000
					}
				}
			}
		}
	}
	JOINT lowerback
	{
		OFFSET 0.004439 0.124404 -0.038385
		CHANNELS 3 Zrotation Yrotation Xrotation
		JOINT upperback
		{
			OFFSET 0.004488 0.137956 0.026820
			CHANNELS 3 Zrotation Yrotation Xrotation
			JOINT chest
			{
				OFFSET -0.002265 0.056032 0.002855
				CHANNELS 3 Zrotation Yrotation Xrotation
				JOINT lowerneck
				{
					OFFSET -0.013390 0.211636 -0.033468
					CHANNELS 3 Zrotation Yrotation Xrotation
					JOINT upperneck
					{
						OFFSET 0.010113 0.088937 0.050410
						CHANNELS 3 Zrotation Yrotation Xrotation
						End Site
						{
							OFFSET 0.000000 0.000000 0.000000
						}
					}
				}
				JOINT lclavicle
				{
					OFFSET 0.071702 0.114000 -0.018898
					CHANNELS 3 Zrotation Yrotation Xrotation
					JOINT lshoulder
					{
						OFFSET 0.122921 0.045205 -0.019046
						CHANNELS 3 Zrotation Yrotation Xrotation
						JOINT lelbow
						{
							OFFSET 0.255332 -0.015649 -0.022946
							CHANNELS 3 Zrotation Yrotation Xrotation
							JOINT lwrist
							{
								OFFSET 0.265709 0.012698 -0.007375
								CHANNELS 3 Zrotation Yrotation Xrotation
								End Site
								{
									OFFSET 0.000000 0.000000 0.000000
								}
							}
						}
					}
				}
				JOINT rclavicle
				{
					OFFSET -0.082954 0.112472 -0.023707
					CHANNELS 3 Zrotation Yrotation Xrotation
					JOINT rshoulder
					{
						OFFSET -0.113228 0.046853 -0.008472
						CHANNELS 3 Zrotation Yrotation Xrotation
						JOINT relbow
						{
							OFFSET -0.260127 -0.014369 -0.031269
							CHANNELS 3 Zrotation Yrotation Xrotation
							JOINT rwrist
							{
								OFFSET -0.269108 0.006794 -0.006027
								CHANNELS 3 Zrotation Yrotation Xrotation
								End Site
								{
									OFFSET 0.000000 0.000000 0.000000
								}
							}
						}
					}
				}
			}
		}
	}
}
MOTION
Frames: 7
Frame Time: 0.033333
2.311958 0.662014 1.005308 -74.479031 -0.153789 84.651791 -1.872083 -6.264158 0.669674 -2.070048 -21.360289 4.718968 -1.031823 3.349667 -6.487618 0.000000 -0.000000 0.000000 2.219183 -7.863380 2.722215 -4.165000 -9.520450 6.253613 -0.289553 -17.999746 -13.102699 0.000000 -0.000000 0.000000 1.527798 5.365383 10.546102 -3.861880 1.949671 -4.047166 -0.323320 2.552942 0.727445 -2.144599 18.344169 -3.173709 -2.548774 16.524928 0.677032 -26.962604 0.850675 -0.971009 -45.247672 -4.583868 2.986883 9.683062 -17.561460 -1.715106 11.902858 -5.662593 -3.165606 23.700968 5.085954 6.525734 54.546279 -0.134142 18.131036 0.128588 28.867501 17.800922 -10.791774 7.684475 -1.444513 
2.310848 0.663615 1.004565 -74.474192 -0.581393 85.138690 -1.871754 -5.731350 0.600309 -2.349881 -22.171391 3.681038 0.106668 3.926581 -4.556549 0.000000 -0.000000 0.000000 1.567399 -8.940907 2.103535 -3.590502 -8.529231 6.359803 -1.855578 -18.283536 -11.885886 0.000000 -0.000000 0.000000 0.785213 5.114036 9.519680 -3.869633 2.251641 -4.071148 -0.327550 2.575623 0.471874 -1.856624 18.571738 -2.720010 -1.748744 17.680559 1.972808 -24.620051 0.462801 0.826399 -44.552458 -4.728059 2.930239 9.842503 -21.869352 5.449675 11.591615 -2.916378 -9.986422 23.543244 5.705425 8.822863 55.634959 0.600721 17.298694 -1.058046 28.333826 19.252202 -15.828279 6.786573 -7.028731 
2.310591 0.666580 1.004543 -74.583103 -0.954203 85.113250 -2.013600 -5.586976 0.996687 -2.150269 -22.152776 2.927668 -0.065544 3.835187 -4.058939 0.000000 -0.000000 0.000000 1.430979 -8.716346 2.235048 -3.640979 -8.692943 5.988051 -1.708226 -18.720685 -12.169039 0.000000 -0.000000 0.000000 -0.102711 5.103917 9.390568 -3.615212 2.424270 -4.011946 -0.210138 2.780040 0.324795 -1.437498 20.007113 -3.271715 -1.384547 17.995532 3.091368 -23.354313 0.359012 1.056147 -42.998243 -5.003406 3.344324 8.497596 -25.620583 7.512109 10.166082 -3.380344 -11.239122 23.658393 5.837813 9.133600 56.587120 0.398832 17.486211 -2.722880 28.296433 17.160597 -15.257672 6.444622 -7.240989 
2.309681 0.668065 1.004444 -74.284350 -0.980802 85.169528 -1.849166 -5.903348 1.105775 -2.232278 -22.103328 2.618438 -0.199545 3.846268 -4.056904 0.000000 -0.000000 0.000000 1.558123 -8.845670 2.472272 -3.720476 -8.841516 5.533819 -1.781178 -18.686250 -11.741703 0.000000 -0.000000 0.000000 -0.410040 5.244046 8.895459 -3.269749 2.159438 -3.479540 -0.044309 2.814438 0.184269 -1.519207 21.082412 -3.015876 -1.513574 18.285961 2.351793 -22.634414 0.375107 1.221781 -42.031489 -4.877758 4.175192 7.858259 -30.305965 8.619433 9.413932 -3.813920 -12.798797 24.019794 5.842751 9.351302 56.916273 0.171330 18.006086 -3.085865 28.599606 17.016338 -14.954956 6.160096 -6.467335 
2.309751 0.668454 1.004530 -74.318020 -0.945873 85.243210 -1.798848 -5.962170 0.997740 -2.187204 -22.037306 2.629561 -0.218289 3.970591 -3.982993 0.000000 -0.000000 0.000000 1.644415 -8.912055 2.434639 -3.738979 -8.784009 5.392993 -1.739257 -18.667891 -11.636137 0.000000 -0.000000 0.000000 -0.244449 5.137609 8.901956 -3.313172 2.241150 -3.660083 -0.035924 2.915923 0.257406 -1.477876 21.447555 -3.112657 -1.520206 18.647744 2.279541 -22.596994 0.553112 1.180297 -41.867972 -4.817269 4.620606 7.616996 -32.480856 9.443062 9.529787 -3.761656 -13.896677 24.051805 5.776066 9.228813 57.157015 0.060712 18.459750 -2.070288 28.576687 18.516362 -15.674851 6.625970 -6.023674 
2.310053 0.668894 1.004540 -74.564428 -0.968148 85.366177 -1.825071 -6.124659 0.842512 -2.099257 -21.670447 2.656991 -0.051380 3.969625 -3.886523 0.000000 -0.000000 0.000000 1.681035 -8.931336 2.319984 -3.736936 -8.661755 5.214526 -1.751321 -18.420519 -11.473861 0.000000 -0.000000 0.000000 -0.065920 5.145540 8.758595 -3.381219 2.329630 -3.592670 -0.043160 3.030765 0.200985 -1.427249 21.655581 -3.228084 -1.504425 19.171880 2.132029 -22.688719 0.768639 1.122932 -42.383586 -4.759890 5.088253 7.691532 -34.404930 9.755166 8.642122 -3.496218 -14.129516 24.227538 6.079521 9.508912 57.632013 0.083274 19.214698 -1.286705 28.723380 19.716854 -14.500512 6.808359 -4.960872 
2.310314 0.669243 1.004948 -74.707542 -1.065175 85.345632 -1.879874 -6.115146 0.900185 -2.149644 -21.474417 2.643166 0.139501 3.956092 -3.991768 0.000000 -0.000000 0.000000 1.526228 -8.865755 2.414429 -3.681191 -8.839468 5.145548 -1.680423 -18.148773 -11.446025 0.000000 -0.000000 0.000000 0.098672 5.045053 9.058885 -3.542260 2.449020 -3.849730 -0.083305 3.147152 0.319020 -1.467171 21.826785 -3.785681 -1.494376 19.316379 1.975738 -22.969865 1.077904 1.023464 -43.458935 -4.902916 5.553170 7.407698 -34.844367 10.863202 8.869567 -3.536599 -14.726639 24.434433 5.732457 9.288361 58.146948 0.248001 19.810434 -0.055043 28.753184 21.830193 -14.991903 6.963904 -4.482927 
